Coordinates
version=1
nRows=8
nColumns=40
inDegrees=yes

Units are S.I. units (second, meters, Newtons, ...)
Angles are in degrees.

endheader
time	pelvis_tilt	pelvis_list	pelvis_rotation	pelvis_tx	pelvis_ty	pelvis_tz	hip_flexion_r	hip_adduction_r	hip_rotation_r	knee_angle_r	knee_angle_r_beta	ankle_angle_r	subtalar_angle_r	mtp_angle_r	hip_flexion_l	hip_adduction_l	hip_rotation_l	knee_angle_l	knee_angle_l_beta	ankle_angle_l	subtalar_angle_l	mtp_angle_l	lumbar_extension	lumbar_bending	lumbar_rotation	arm_flex_r	arm_add_r	arm_rot_r	elbow_flex_r	pro_sup_r	wrist_flex_r	wrist_dev_r	arm_flex_l	arm_add_l	arm_rot_l	elbow_flex_l	pro_sup_l	wrist_flex_l	wrist_dev_l
     18.04000000	     -5.57484730	     -5.05220768	      6.11456534	      1.01029247	      0.93198782	      0.48734525	     13.24122498	      3.38083223	    -19.58450601	     13.10086162	     13.10086162	      8.24390826	      2.85665416	     -3.21353796	     37.00508853	    -10.25224151	      4.14103197	     70.66150368	     70.66150368	      7.70484789	    -17.34801929	      7.98237671	    -11.64223979	      6.48926663	      5.83821864	     16.13850665	    -15.78928895	     -3.01772486	     34.75753531	     45.77649086	      0.00000000	      0.00000000	      6.10166972	     -8.05151667	      0.54298874	     33.31225453	     45.41439799	      0.00000000	      0.00000000
     18.05157143	     -5.70345260	     -4.92694870	      6.18177556	      1.00907791	      0.93213603	      0.48784296	     12.77164313	      3.32550374	    -19.69013395	     12.96058755	     12.96058755	      8.55814781	      3.18682888	     -3.55695522	     38.59610856	     -9.96463246	      4.01287600	     69.30846287	     69.30846287	      7.81262429	    -17.74804553	      8.35383361	    -11.56859611	      6.31797676	      5.60472936	     18.86663641	    -15.76770010	     -2.98342949	     35.70055335	     45.75938915	      0.00000000	      0.00000000	      4.60293822	     -8.15150046	      0.78721416	     31.25833975	     45.37482992	      0.00000000	      0.00000000
     18.06314286	     -5.74443574	     -4.89793557	      6.22746389	      1.00798938	      0.93232366	      0.48845439	     12.07872041	      3.47707746	    -19.67256361	     12.50779833	     12.50779833	      8.75888459	      3.34472899	     -3.73740366	     39.95379220	     -9.82457260	      3.87161443	     67.75939779	     67.75939779	      8.00564461	    -18.01653027	      8.90767735	    -11.59835991	      6.19700774	      5.57872788	     21.48944305	    -15.86806755	     -2.72236764	     36.64793808	     45.72834882	      0.00000000	      0.00000000	      3.24571266	     -8.14576092	      1.02927168	     29.09556186	     45.34439116	      0.00000000	      0.00000000
     18.07471429	     -5.78309816	     -4.85868568	      6.27286335	      1.00697429	      0.93250254	      0.48897558	     11.39039793	      3.61806739	    -19.56934018	     12.06537424	     12.06537424	      8.95961489	      3.41204951	     -3.82381576	     41.11586153	     -9.63635435	      3.74624925	     65.94198509	     65.94198509	      8.14717446	    -18.23190845	      9.58912810	    -11.64366215	      6.10969458	      5.69885761	     23.88591189	    -16.01099242	     -2.45013908	     37.75218952	     45.68839457	      0.00000000	      0.00000000	      1.87934722	     -8.15979475	      1.20622870	     27.32888630	     45.31810092	      0.00000000	      0.00000000
     18.08628571	     -5.81093958	     -4.86203170	      6.30054877	      1.00598421	      0.93259282	      0.48944151	     10.69313428	      3.80498401	    -19.47952184	     11.60383520	     11.60383520	      9.15919326	      3.50563288	     -3.90674247	     42.11995440	     -9.48521829	      3.63429506	     63.91548160	     63.91548160	      8.34820629	    -18.30205339	     10.43919901	    -11.68177013	      6.05243787	      5.73471519	     26.23345199	    -16.14548735	     -2.02155541	     39.02105527	     45.63358302	      0.00000000	      0.00000000	      0.57822929	     -8.13009798	      1.38822447	     25.54483523	     45.29513682	      0.00000000	      0.00000000
     18.09785714	     -5.88231833	     -4.87503785	      6.30303474	      1.00501882	      0.93255989	      0.48974705	     10.05718070	      3.97704643	    -19.39790410	     11.16343512	     11.16343512	      9.30567124	      3.63878195	     -4.12257631	     43.02719502	     -9.27686914	      3.59071764	     61.70566170	     61.70566170	      8.81173192	    -18.23328598	     12.11065175	    -11.66580746	      6.03325417	      6.07051578	     28.19010582	    -16.78490906	     -0.32761604	     40.78969427	     45.49760859	      0.00000000	      0.00000000	     -0.32982997	     -7.99217150	      1.62407093	     23.24544952	     45.32197000	      0.00000000	      0.00000000
     18.10942857	     -5.90834274	     -4.86566913	      6.28893976	      1.00419857	      0.93257290	      0.48995241	      9.35274105	      4.12753383	    -19.28427489	     10.71374934	     10.71374934	      9.52769003	      3.82411864	     -4.12204905	     43.61662976	     -9.04359608	      3.54023368	     59.10873922	     59.10873922	      8.83773199	    -18.20127228	     12.49821160	    -11.70597481	      5.97574707	      6.18272794	     30.30583494	    -16.87650591	     -0.27694043	     42.25900525	     45.45505465	      0.00000000	      0.00000000	     -1.83608037	     -8.02845166	      1.64823726	     22.51467741	     45.30359045	      0.00000000	      0.00000000
     18.12100000	     -5.95950402	     -4.91092187	      6.27908001	      1.00343283	      0.93245480	      0.49002619	      8.65273052	      4.32536474	    -19.23205629	     10.21481529	     10.21481529	      9.72736466	      4.09821690	     -4.11918811	     44.07495331	     -8.81014211	      3.58709426	     56.27442415	     56.27442415	      8.86829058	    -18.01542204	     12.78583835	    -11.70219772	      5.99355140	      6.20841574	     32.32062479	    -16.88714404	     -0.13451708	     43.99892270	     45.39724798	      0.00000000	      0.00000000	     -3.37699099	     -8.04348741	      1.67127363	     21.90334929	     45.28235380	      0.00000000	      0.00000000
